# xmcd
#
# Track frame offsets: 
#        150
#        17702
#        32854
#        57935
#        83860
#        104570
#        126426
#        144157
#        165631
#        184710
#
# Disc length: 2715 seconds
#
# Revision: 0
# Processed by: cddbd v1.5.2PL0 Copyright (c) Steve Scherf et al.
# Submitted via: ExactAudioCopy v1.2
#
DISCID=840a990a
DTITLE=Joseph Parsons - Digging For Rays
DYEAR=2019
DGENRE=Acoustic
TTITLE0=Wide Awake
TTITLE1=Come Around
TTITLE2=Living Things
TTITLE3=Beautiful Lie
TTITLE4=Today
TTITLE5=Piracy
TTITLE6=Sad Parade
TTITLE7=Dreaming
TTITLE8=Long Road
TTITLE9=Hellwach (Wide Awake) (Bonus Track)
EXTD=
EXTT0=
EXTT1=
EXTT2=
EXTT3=
EXTT4=
EXTT5=
EXTT6=
EXTT7=
EXTT8=
EXTT9=
PLAYORDER=
